<mxfile host="Electron" agent="Mozilla/5.0 (Windows NT 10.0; Win64; x64) AppleWebKit/537.36 (KHTML, like Gecko) draw.io/24.7.8 Chrome/128.0.6613.36 Electron/32.0.1 Safari/537.36" version="24.7.8">
  <diagram name="1 oldal" id="VzkEbNVjrJZZ-64l2qZc">
    <mxGraphModel dx="864" dy="516" grid="1" gridSize="10" guides="1" tooltips="1" connect="1" arrows="1" fold="1" page="1" pageScale="1" pageWidth="827" pageHeight="1169" math="0" shadow="0">
      <root>
        <mxCell id="0" />
        <mxCell id="1" parent="0" />
        <mxCell id="pw6tKkY08NWm6JOJY5G8-1" value="Ora" style="ellipse;whiteSpace=wrap;html=1;" parent="1" vertex="1">
          <mxGeometry x="344" y="220" width="120" height="80" as="geometry" />
        </mxCell>
        <mxCell id="pw6tKkY08NWm6JOJY5G8-2" value="Tipus" style="rhombus;whiteSpace=wrap;html=1;" parent="1" vertex="1">
          <mxGeometry x="570" y="280" width="80" height="80" as="geometry" />
        </mxCell>
        <mxCell id="pw6tKkY08NWm6JOJY5G8-3" value="ID" style="rhombus;whiteSpace=wrap;html=1;" parent="1" vertex="1">
          <mxGeometry x="150" y="280" width="80" height="80" as="geometry" />
        </mxCell>
        <mxCell id="pw6tKkY08NWm6JOJY5G8-4" value="Hely" style="ellipse;whiteSpace=wrap;html=1;" parent="1" vertex="1">
          <mxGeometry x="344" y="460" width="120" height="80" as="geometry" />
        </mxCell>
        <mxCell id="pw6tKkY08NWm6JOJY5G8-5" value="Oktató" style="ellipse;whiteSpace=wrap;html=1;" parent="1" vertex="1">
          <mxGeometry x="500" y="460" width="120" height="80" as="geometry" />
        </mxCell>
        <mxCell id="pw6tKkY08NWm6JOJY5G8-6" value="Szak" style="ellipse;whiteSpace=wrap;html=1;" parent="1" vertex="1">
          <mxGeometry x="650" y="460" width="120" height="80" as="geometry" />
        </mxCell>
        <mxCell id="pw6tKkY08NWm6JOJY5G8-7" value="Időpont" style="ellipse;whiteSpace=wrap;html=1;" parent="1" vertex="1">
          <mxGeometry x="190" y="460" width="120" height="80" as="geometry" />
        </mxCell>
        <mxCell id="pw6tKkY08NWm6JOJY5G8-8" value="Tárgy" style="ellipse;whiteSpace=wrap;html=1;" parent="1" vertex="1">
          <mxGeometry x="50" y="460" width="120" height="80" as="geometry" />
        </mxCell>
        <mxCell id="pw6tKkY08NWm6JOJY5G8-11" value="Nap" style="ellipse;whiteSpace=wrap;html=1;" parent="1" vertex="1">
          <mxGeometry x="120" y="620" width="80" height="50" as="geometry" />
        </mxCell>
        <mxCell id="pw6tKkY08NWm6JOJY5G8-12" value="Tól" style="ellipse;whiteSpace=wrap;html=1;" parent="1" vertex="1">
          <mxGeometry x="210" y="620" width="80" height="50" as="geometry" />
        </mxCell>
        <mxCell id="pw6tKkY08NWm6JOJY5G8-13" value="Ig" style="ellipse;whiteSpace=wrap;html=1;" parent="1" vertex="1">
          <mxGeometry x="300" y="620" width="80" height="50" as="geometry" />
        </mxCell>
        <mxCell id="pw6tKkY08NWm6JOJY5G8-14" value="" style="endArrow=none;html=1;rounded=0;" parent="1" source="pw6tKkY08NWm6JOJY5G8-1" target="pw6tKkY08NWm6JOJY5G8-3" edge="1">
          <mxGeometry width="50" height="50" relative="1" as="geometry">
            <mxPoint x="380" y="490" as="sourcePoint" />
            <mxPoint x="430" y="440" as="targetPoint" />
          </mxGeometry>
        </mxCell>
        <mxCell id="pw6tKkY08NWm6JOJY5G8-15" value="" style="endArrow=none;html=1;rounded=0;" parent="1" source="pw6tKkY08NWm6JOJY5G8-2" target="pw6tKkY08NWm6JOJY5G8-1" edge="1">
          <mxGeometry width="50" height="50" relative="1" as="geometry">
            <mxPoint x="380" y="490" as="sourcePoint" />
            <mxPoint x="430" y="440" as="targetPoint" />
          </mxGeometry>
        </mxCell>
        <mxCell id="pw6tKkY08NWm6JOJY5G8-16" value="" style="endArrow=none;html=1;rounded=0;" parent="1" source="pw6tKkY08NWm6JOJY5G8-8" target="pw6tKkY08NWm6JOJY5G8-1" edge="1">
          <mxGeometry width="50" height="50" relative="1" as="geometry">
            <mxPoint x="380" y="490" as="sourcePoint" />
            <mxPoint x="430" y="440" as="targetPoint" />
          </mxGeometry>
        </mxCell>
        <mxCell id="pw6tKkY08NWm6JOJY5G8-17" value="" style="endArrow=none;html=1;rounded=0;" parent="1" source="pw6tKkY08NWm6JOJY5G8-7" target="pw6tKkY08NWm6JOJY5G8-1" edge="1">
          <mxGeometry width="50" height="50" relative="1" as="geometry">
            <mxPoint x="380" y="490" as="sourcePoint" />
            <mxPoint x="430" y="440" as="targetPoint" />
          </mxGeometry>
        </mxCell>
        <mxCell id="pw6tKkY08NWm6JOJY5G8-18" value="" style="endArrow=none;html=1;rounded=0;" parent="1" source="pw6tKkY08NWm6JOJY5G8-4" target="pw6tKkY08NWm6JOJY5G8-1" edge="1">
          <mxGeometry width="50" height="50" relative="1" as="geometry">
            <mxPoint x="370" y="390" as="sourcePoint" />
            <mxPoint x="420" y="340" as="targetPoint" />
          </mxGeometry>
        </mxCell>
        <mxCell id="pw6tKkY08NWm6JOJY5G8-19" value="" style="endArrow=none;html=1;rounded=0;" parent="1" source="pw6tKkY08NWm6JOJY5G8-6" target="pw6tKkY08NWm6JOJY5G8-1" edge="1">
          <mxGeometry width="50" height="50" relative="1" as="geometry">
            <mxPoint x="380" y="490" as="sourcePoint" />
            <mxPoint x="430" y="440" as="targetPoint" />
          </mxGeometry>
        </mxCell>
        <mxCell id="pw6tKkY08NWm6JOJY5G8-20" value="" style="endArrow=none;html=1;rounded=0;" parent="1" source="pw6tKkY08NWm6JOJY5G8-5" target="pw6tKkY08NWm6JOJY5G8-1" edge="1">
          <mxGeometry width="50" height="50" relative="1" as="geometry">
            <mxPoint x="380" y="490" as="sourcePoint" />
            <mxPoint x="430" y="440" as="targetPoint" />
          </mxGeometry>
        </mxCell>
        <mxCell id="pw6tKkY08NWm6JOJY5G8-21" value="" style="endArrow=none;html=1;rounded=0;" parent="1" source="pw6tKkY08NWm6JOJY5G8-11" target="pw6tKkY08NWm6JOJY5G8-7" edge="1">
          <mxGeometry width="50" height="50" relative="1" as="geometry">
            <mxPoint x="380" y="490" as="sourcePoint" />
            <mxPoint x="430" y="440" as="targetPoint" />
          </mxGeometry>
        </mxCell>
        <mxCell id="pw6tKkY08NWm6JOJY5G8-22" value="" style="endArrow=none;html=1;rounded=0;" parent="1" source="pw6tKkY08NWm6JOJY5G8-7" target="pw6tKkY08NWm6JOJY5G8-12" edge="1">
          <mxGeometry width="50" height="50" relative="1" as="geometry">
            <mxPoint x="380" y="490" as="sourcePoint" />
            <mxPoint x="430" y="440" as="targetPoint" />
          </mxGeometry>
        </mxCell>
        <mxCell id="pw6tKkY08NWm6JOJY5G8-23" value="" style="endArrow=none;html=1;rounded=0;" parent="1" source="pw6tKkY08NWm6JOJY5G8-13" target="pw6tKkY08NWm6JOJY5G8-7" edge="1">
          <mxGeometry width="50" height="50" relative="1" as="geometry">
            <mxPoint x="380" y="490" as="sourcePoint" />
            <mxPoint x="430" y="440" as="targetPoint" />
          </mxGeometry>
        </mxCell>
        <mxCell id="pw6tKkY08NWm6JOJY5G8-24" value="R41N5H_Orarend" style="ellipse;whiteSpace=wrap;html=1;" parent="1" vertex="1">
          <mxGeometry x="321" y="20" width="166" height="100" as="geometry" />
        </mxCell>
        <mxCell id="pw6tKkY08NWm6JOJY5G8-25" value="" style="endArrow=none;html=1;rounded=0;" parent="1" source="pw6tKkY08NWm6JOJY5G8-1" target="pw6tKkY08NWm6JOJY5G8-24" edge="1">
          <mxGeometry width="50" height="50" relative="1" as="geometry">
            <mxPoint x="360" y="210" as="sourcePoint" />
            <mxPoint x="410" y="160" as="targetPoint" />
          </mxGeometry>
        </mxCell>
        <mxCell id="9cP66Y_7YzbHG8RBzl11-2" value="Ora" style="ellipse;whiteSpace=wrap;html=1;" vertex="1" parent="1">
          <mxGeometry x="354" y="230" width="100" height="60" as="geometry" />
        </mxCell>
        <mxCell id="9cP66Y_7YzbHG8RBzl11-3" value="" style="rounded=0;whiteSpace=wrap;html=1;rotation=-90;" vertex="1" parent="1">
          <mxGeometry x="515" y="600" width="90" height="50" as="geometry" />
        </mxCell>
        <mxCell id="9cP66Y_7YzbHG8RBzl11-6" value="" style="rounded=0;whiteSpace=wrap;html=1;rotation=-90;" vertex="1" parent="1">
          <mxGeometry x="665" y="600" width="90" height="50" as="geometry" />
        </mxCell>
        <mxCell id="9cP66Y_7YzbHG8RBzl11-7" value="" style="rounded=0;whiteSpace=wrap;html=1;rotation=-90;" vertex="1" parent="1">
          <mxGeometry x="374" y="600" width="90" height="50" as="geometry" />
        </mxCell>
        <mxCell id="9cP66Y_7YzbHG8RBzl11-8" value="" style="rounded=0;whiteSpace=wrap;html=1;rotation=-90;" vertex="1" parent="1">
          <mxGeometry x="295" y="730" width="90" height="50" as="geometry" />
        </mxCell>
        <mxCell id="9cP66Y_7YzbHG8RBzl11-9" value="" style="rounded=0;whiteSpace=wrap;html=1;rotation=-90;" vertex="1" parent="1">
          <mxGeometry x="205" y="730" width="90" height="50" as="geometry" />
        </mxCell>
        <mxCell id="9cP66Y_7YzbHG8RBzl11-10" value="" style="rounded=0;whiteSpace=wrap;html=1;rotation=-90;" vertex="1" parent="1">
          <mxGeometry x="30" y="610" width="90" height="50" as="geometry" />
        </mxCell>
        <mxCell id="9cP66Y_7YzbHG8RBzl11-11" value="" style="rounded=0;whiteSpace=wrap;html=1;rotation=-90;" vertex="1" parent="1">
          <mxGeometry x="115" y="730" width="90" height="50" as="geometry" />
        </mxCell>
        <mxCell id="9cP66Y_7YzbHG8RBzl11-13" value="" style="endArrow=none;html=1;rounded=0;" edge="1" parent="1" source="9cP66Y_7YzbHG8RBzl11-7" target="pw6tKkY08NWm6JOJY5G8-4">
          <mxGeometry width="50" height="50" relative="1" as="geometry">
            <mxPoint x="390" y="590" as="sourcePoint" />
            <mxPoint x="440" y="540" as="targetPoint" />
          </mxGeometry>
        </mxCell>
        <mxCell id="9cP66Y_7YzbHG8RBzl11-14" value="" style="endArrow=none;html=1;rounded=0;" edge="1" parent="1" source="9cP66Y_7YzbHG8RBzl11-3" target="pw6tKkY08NWm6JOJY5G8-5">
          <mxGeometry width="50" height="50" relative="1" as="geometry">
            <mxPoint x="390" y="590" as="sourcePoint" />
            <mxPoint x="440" y="540" as="targetPoint" />
          </mxGeometry>
        </mxCell>
        <mxCell id="9cP66Y_7YzbHG8RBzl11-15" value="" style="endArrow=none;html=1;rounded=0;" edge="1" parent="1" source="9cP66Y_7YzbHG8RBzl11-6" target="pw6tKkY08NWm6JOJY5G8-6">
          <mxGeometry width="50" height="50" relative="1" as="geometry">
            <mxPoint x="390" y="590" as="sourcePoint" />
            <mxPoint x="440" y="540" as="targetPoint" />
          </mxGeometry>
        </mxCell>
        <mxCell id="9cP66Y_7YzbHG8RBzl11-16" value="" style="endArrow=none;html=1;rounded=0;" edge="1" parent="1" source="9cP66Y_7YzbHG8RBzl11-10" target="pw6tKkY08NWm6JOJY5G8-8">
          <mxGeometry width="50" height="50" relative="1" as="geometry">
            <mxPoint x="390" y="590" as="sourcePoint" />
            <mxPoint x="440" y="540" as="targetPoint" />
          </mxGeometry>
        </mxCell>
        <mxCell id="9cP66Y_7YzbHG8RBzl11-17" value="" style="endArrow=none;html=1;rounded=0;" edge="1" parent="1" source="9cP66Y_7YzbHG8RBzl11-11" target="pw6tKkY08NWm6JOJY5G8-11">
          <mxGeometry width="50" height="50" relative="1" as="geometry">
            <mxPoint x="390" y="590" as="sourcePoint" />
            <mxPoint x="440" y="540" as="targetPoint" />
          </mxGeometry>
        </mxCell>
        <mxCell id="9cP66Y_7YzbHG8RBzl11-18" value="" style="endArrow=none;html=1;rounded=0;" edge="1" parent="1" source="9cP66Y_7YzbHG8RBzl11-9" target="pw6tKkY08NWm6JOJY5G8-12">
          <mxGeometry width="50" height="50" relative="1" as="geometry">
            <mxPoint x="390" y="590" as="sourcePoint" />
            <mxPoint x="440" y="540" as="targetPoint" />
          </mxGeometry>
        </mxCell>
        <mxCell id="9cP66Y_7YzbHG8RBzl11-19" value="" style="endArrow=none;html=1;rounded=0;" edge="1" parent="1" source="9cP66Y_7YzbHG8RBzl11-8" target="pw6tKkY08NWm6JOJY5G8-13">
          <mxGeometry width="50" height="50" relative="1" as="geometry">
            <mxPoint x="390" y="590" as="sourcePoint" />
            <mxPoint x="440" y="540" as="targetPoint" />
          </mxGeometry>
        </mxCell>
      </root>
    </mxGraphModel>
  </diagram>
</mxfile>
